<?xml version="1.0" encoding="UTF-8" standalone="no"?>
<svg
   id="Layer_1"
   data-name="Layer 1"
   viewBox="0 0 853.59802 200"
   version="1.1"
   sodipodi:docname="logo-long.svg"
   inkscape:version="1.3 (0e150ed6c4, 2023-07-21)"
   width="853.59802"
   height="200"
   xmlns:inkscape="http://www.inkscape.org/namespaces/inkscape"
   xmlns:sodipodi="http://sodipodi.sourceforge.net/DTD/sodipodi-0.dtd"
   xmlns="http://www.w3.org/2000/svg"
   xmlns:svg="http://www.w3.org/2000/svg">
  <sodipodi:namedview
     id="namedview46"
     pagecolor="#ffffff"
     bordercolor="#000000"
     borderopacity="0.25"
     inkscape:showpageshadow="2"
     inkscape:pageopacity="0.0"
     inkscape:pagecheckerboard="0"
     inkscape:deskcolor="#d1d1d1"
     showgrid="false"
     inkscape:zoom="0.59630803"
     inkscape:cx="279.21811"
     inkscape:cy="179.43746"
     inkscape:window-width="1280"
     inkscape:window-height="698"
     inkscape:window-x="1530"
     inkscape:window-y="-6"
     inkscape:window-maximized="1"
     inkscape:current-layer="g47" />
  <defs
     id="defs1">
    <style
       id="style1">&#10;      .cls-1 {&#10;        fill: #031e5b;&#10;      }&#10;&#10;      .cls-1, .cls-2, .cls-3, .cls-4 {&#10;        stroke-width: 0px;&#10;      }&#10;&#10;      .cls-2 {&#10;        fill: #35b6c4;&#10;      }&#10;&#10;      .cls-3 {&#10;        fill: #5ec9e3;&#10;      }&#10;&#10;      .cls-4 {&#10;        fill: #37bdd3;&#10;      }&#10;    </style>
  </defs>
  <g
     id="g11"
     transform="matrix(0.90824928,0,0,0.90824928,-262.0922,-131.04252)">
    <g
       id="g8">
      <path
         class="cls-3"
         d="m 308.10979,181.04467 c 0,0 -2.30232,3.39739 -1.69229,9.26415 0,0 -6.3076,-1.29993 -5.12199,3.71749 1.18561,5.01742 4.38361,3.59036 4.38361,3.59036 l 0.53564,8.17122 c 0,0 -13.49473,-2.94802 -12.02987,-12.24235 1.46486,-9.29434 8.98185,-13.61972 13.92489,-12.50088 z"
         id="path1" />
      <path
         class="cls-3"
         d="m 393.78217,156.31058 4.20253,4.95493 c 0,0 1.87765,-3.68518 4.75981,-0.98836 2.88217,2.69681 3.23246,5.28905 0.82343,7.74655 l 4.38575,7.06213 c 0,0 8.72638,-9.9507 1.24719,-18.11766 -7.47919,-8.16695 -15.41871,-0.65759 -15.41871,-0.65759 z"
         id="path2" />
      <path
         class="cls-1"
         d="m 425.53968,223.93755 c 0,0 4.07753,-1.07891 8.89984,0.94964 0,0 3.8059,0.96794 3.68731,5.34942 0,0 0.57771,2.62242 -0.78685,2.44134 -1.36456,-0.18109 -1.62431,-3.45561 -3.44372,-3.69706 0,0 1.48742,2.74315 1.4734,4.59275 -0.014,1.8496 -3.65499,-2.10507 -8.94618,-2.34439 l -0.8838,-7.29169 z"
         id="path3" />
      <path
         class="cls-1"
         d="m 336.21506,325.02257 c 0,0 -4.25862,2.44347 -6.54478,7.46303 -2.28616,5.01956 2.27854,7.24536 2.96082,7.3359 0.68228,0.0905 -2.06514,-5.36558 0.36004,-6.2009 2.42518,-0.83532 0.16706,0.48504 1.03257,2.68279 0.8655,2.19775 0.59387,4.2446 2.79162,3.37909 2.19775,-0.8655 3.81992,-0.88166 4.50007,-4.26289 0.68015,-3.38123 5.34728,-7.15908 5.34728,-7.15908 0,0 -2.23434,-9.32238 -10.44763,-3.23794 z"
         id="path4" />
      <path
         class="cls-1"
         d="m 417.23433,302.21673 c 0,0 -2.69468,6.35394 -5.78598,8.72089 0,0 2.60627,-2.19989 4.23057,1.25573 1.62431,3.45561 -0.93562,7.05024 3.12789,7.82094 4.06351,0.77069 6.22894,-3.33916 4.92261,-7.44687 0,0 2.15355,1.21152 1.30634,4.10771 0,0 5.9067,-9.6306 -7.80143,-14.4584 z"
         id="path5" />
      <circle
         class="cls-1"
         cx="341.53946"
         cy="182.00957"
         r="5.5061102"
         id="circle5" />
      <path
         class="cls-3"
         d="m 420.57622,214.25298 c 0,0 -5.93783,-16.29392 -6.54783,-22.16073 -0.61004,-5.86682 -17.97408,-38.95168 -35.88045,-41.79081 -17.90642,-2.83914 -38.18523,6.96708 -38.18523,6.96708 0,0 -10.35068,6.49509 -16.48907,9.15185 -6.13842,2.65692 -14.42609,11.04581 -15.91898,24.03937 -1.49292,12.99347 0.7661,37.82517 11.34088,50.56877 10.57477,12.74343 8.8102,27.78386 6.22436,38.54945 -2.5858,10.7656 -10.86496,33.0416 10.53361,44.44436 0,0 8.9096,-7.84354 12.6012,4.44942 0,0 56.31141,8.16726 68.8406,-30.43927 12.52923,-38.60652 8.51875,-76.39935 3.48092,-83.77949 z m -44.5797,-61.69132 c 9.04354,1.20015 15.40184,9.50426 14.20168,18.54788 -1.20014,9.04346 -9.50425,15.40176 -18.54779,14.20161 -9.04354,-1.20015 -15.40184,-9.50426 -14.2017,-18.54772 1.20016,-9.04362 9.50427,-15.40192 18.54781,-14.20177 z m -44.89186,47.04053 c -9.04354,-1.20015 -15.40188,-9.50427 -14.20174,-18.54773 1.20016,-9.04362 9.50431,-15.40191 18.54785,-14.20177 9.0435,1.20014 15.40184,9.50426 14.20168,18.54788 -1.20014,9.04346 -9.50429,15.40176 -18.54779,14.20161 z m 36.56802,1.14999 c 0,0 2.39925,6.33567 2.73339,7.30565 0.33411,0.97014 -0.64388,4.85186 -5.46619,2.82329 l -2.7844,-8.08389 1.90559,8.89298 c 0,0 0.36501,1.89995 -2.74783,2.104 -3.11284,0.20405 -4.21442,0.36635 -5.92816,-8.80974 0,0 -7.23598,1.04549 -8.68388,-3.15818 0,0 -3.41895,-4.46524 2.73418,-7.81443 l 1.13248,0.76743 c 0,0 -5.64869,1.87328 -2.83625,6.25803 2.81245,4.38467 7.13683,2.02715 8.83412,0.86378 1.69725,-1.16338 3.56627,-2.4582 6.46712,-2.22748 2.90087,0.23064 9.19768,0.44913 9.44848,-2.60338 0.25081,-3.05252 -1.21718,-7.10452 -6.96793,-6.78765 l 0.27234,-0.88957 c 0,0 7.51913,-0.85359 7.79719,7.51484 0,0 0.27519,3.73938 -5.91026,3.84432 z m 31.17053,49.96019 c 0,0 0.34603,-4.35125 -2.26239,-5.6232 0,0 1.19967,3.16784 0.86766,5.6696 0,0 -5.4421,0.89773 -6.73229,-1.58773 -1.29016,-2.48562 -4.83848,-3.65082 -4.83848,-3.65082 0,0 -2.45321,4.53459 -12.36734,5.99614 0,0 10.74729,-2.50811 13.36332,-13.50118 0,0 11.82411,-1.90239 15.04468,8.70812 0,0 0.65424,3.78969 -3.07516,3.98907 z"
         id="path6" />
      <circle
         class="cls-1"
         cx="382.08521"
         cy="167.71852"
         r="5.5061102"
         id="circle6" />
      <path
         class="cls-1"
         d="m 355.84867,186.37711 c 0,0 -6.15456,1.0347 -5.48345,7.60387 0,0 8.69467,4.23962 13.844,-4.33433 0,0 -0.73147,-6.11432 -8.36054,-3.26954 z"
         id="path7" />
      <path
         class="cls-4"
         d="m 333.71914,260.12166 c 0,0 -0.53473,17.98078 -2.98582,25.98707 -2.45109,8.00629 -7.15603,24.27649 4.02022,28.99972 11.17625,4.72323 16.28543,-19.82489 14.11146,-29.60213 -2.17397,-9.77724 -3.70774,-13.91513 -4.24338,-22.08635 -0.53564,-8.17122 -4.9095,-20.55473 -10.07997,-21.70375 -5.17046,-1.14903 -5.12199,3.71749 -0.82252,18.40545 z"
         id="path8" />
    </g>
    <path
       class="cls-1"
       d="m 441.26126,196.98319 9.67586,0.95306 0.80629,-9.25005 -9.25005,-0.80629 c 0,0 -3.77433,-7.0177 -6.54842,-0.3515 l -10.39521,-0.24821 -0.087,8.5452 9.80814,1.95145 -5.23644,38.68896 5.27099,-0.0888 5.95579,-39.39381 z"
       id="path9" />
    <g
       id="g10">
      <polygon
         class="cls-1"
         points="462.6468,233.25589 400.55014,243.35051 401.91836,246.72332 461.4232,237.84433 501.49545,244.87996 501.49545,239.06789 "
         id="polygon9" />
      <path
         class="cls-1"
         d="m 385.87769,245.52023 -0.12521,4.06282 4.35899,-1.14707 c -1.37651,-2.40888 -4.23378,-2.91576 -4.23378,-2.91576 z"
         id="path10" />
    </g>
    <path
       class="cls-1"
       d="m 533.43832,257.8132 -18.71723,-3.01891 -0.60377,-3.01891 h -4.83029 v -2.41514 l -49.51009,-8.15104 -0.60381,3.62276 49.51013,11.77364 -51.32147,-10.26426 v -5.13213 l -9.96238,2.41514 v 7.24543 c 22.03802,0 20.22668,19.62284 20.22668,19.62284 0,0 3.9246,1.20753 1.9623,6.49066 -1.9623,5.28313 -6.49066,6.49066 -6.49066,6.49066 l -4.83025,4.83029 -6.3397,6.33966 v 22.73316 h -25.1729 c -0.97175,2.4695 -3.17697,4.40014 -6.6275,4.40014 -3.45624,0 -5.66103,-1.93064 -6.6306,-4.40014 h -4.6875 c 0,0 -12.84759,22.02441 -61.48488,14.68289 0,0 -3.67072,-0.30581 -4.2825,3.67084 0,0 -0.61178,5.81199 -9.48275,5.81199 0,0 -6.42377,0.91759 -7.03559,-6.72974 0,0 1.2236,-5.20021 4.58843,-7.9533 h -26.30695 v 32.11903 h 223.30325 v -3.49953 c 0.14485,-0.83094 0.11022,-2.05426 0,-3.31163 v -4.9947 l -0.6824,0.13481 c -0.0158,-0.085 -0.0254,-0.13481 -0.0254,-0.13481 h -12.07564 v -62.1895 c 0,0 -16.0002,-1.8113 -15.69832,-11.47187 0.30188,-9.6605 13.5851,-5.43397 13.5851,-5.43397 v -3.62276 c 6.3397,-0.60377 16.00024,-2.11322 19.32103,-3.62268 3.32079,-1.50946 0.90565,-3.01891 0.90565,-3.01891 z m -29.18982,31.11566 h 6.42377 v 62.09658 h -6.42377 z"
       id="path11" />
  </g>
  <g
     id="g47"
     transform="matrix(2.5284373,0,0,2.5284373,-1197.36,-523.684)">
    <g
       id="g18"
       transform="matrix(1.0857112,0,0,1.0857112,237.32937,-191.72699)">
      <path
         class="cls-1"
         d="m 320.00544,409.23858 c -3.78266,0 -7.04318,-0.81956 -9.78277,-2.46111 -2.74081,-1.63911 -4.85383,-3.97442 -6.33905,-7.00349 -1.48583,-3.02906 -2.22844,-6.58943 -2.22844,-10.68111 0,-4.09046 0.82933,-7.62151 2.48921,-10.59317 1.65866,-2.97166 3.96526,-5.26788 6.91738,-6.88867 2.95212,-1.62079 6.37691,-2.4318 10.27499,-2.4318 3.39548,0 6.45447,0.67665 9.17574,2.0263 2.72066,1.35209 4.85261,3.3393 6.39645,5.96286 l -7.87312,3.24159 c -0.61742,-1.00277 -1.57255,-1.87118 -2.8654,-2.60524 -1.29346,-0.73284 -2.94295,-1.09926 -4.9491,-1.09926 -1.81438,0 -3.47365,0.46291 -4.97841,1.38873 -1.50537,0.92704 -2.70173,2.30722 -3.58907,4.13931 -0.88857,1.83332 -1.33132,4.11977 -1.33132,6.85936 0,4.05259 0.92582,7.16959 2.77868,9.34979 1.85225,2.18019 4.28344,3.26968 7.29357,3.26968 1.4272,0 2.79761,-0.20275 4.11,-0.60703 1.31178,-0.4055 2.39271,-1.09071 3.24159,-2.05561 0.84887,-0.96368 1.27392,-2.25714 1.27392,-3.87793 v -1.10048 h -8.68352 v -7.40899 h 17.82994 v 21.88131 h -6.02026 l -1.27392,-4.28344 c -2.47027,3.31975 -6.42576,4.97841 -11.86708,4.97841 z"
         id="path12" />
      <path
         class="cls-1"
         d="m 357.86444,409.23858 c -2.66325,0 -5.15246,-0.54108 -7.46762,-1.62079 -2.31577,-1.08094 -4.18817,-2.75058 -5.61537,-5.00772 -1.42781,-2.25714 -2.14172,-5.10299 -2.14172,-8.53878 0,-3.47243 0.71391,-6.31828 2.14172,-8.53878 1.4272,-2.21806 3.2996,-3.85839 5.61537,-4.91978 2.31516,-1.06139 4.80436,-1.59148 7.46762,-1.59148 2.62356,0 5.09383,0.53009 7.4096,1.59148 2.31577,1.06139 4.18695,2.70173 5.61537,4.91978 1.4272,2.2205 2.14172,5.06635 2.14172,8.53878 0,3.43579 -0.71452,6.28164 -2.14172,8.53878 -1.42842,2.25714 -3.2996,3.92679 -5.61537,5.00772 -2.31577,1.07971 -4.78604,1.62079 -7.4096,1.62079 z m 0,-6.83127 c 1.77469,0 3.25075,-0.63635 4.42817,-1.91026 1.17682,-1.27392 1.76553,-3.41502 1.76553,-6.42576 0,-3.04738 -0.60764,-5.18116 -1.82354,-6.39645 -1.21529,-1.21529 -2.67241,-1.82354 -4.37016,-1.82354 -1.73683,0 -3.21288,0.60826 -4.42878,1.82354 -1.21529,1.21529 -1.82354,3.34907 -1.82354,6.39645 0,3.01074 0.59787,5.15185 1.79484,6.42576 1.19575,1.27392 2.68158,1.91026 4.45748,1.91026 z"
         id="path13" />
      <path
         class="cls-1"
         d="m 376.96708,408.54361 v -38.6694 h 27.67012 v 8.04656 h -18.52369 v 6.71524 h 18.52369 v 8.04656 h -18.52369 v 15.86105 h -9.14642 z"
         id="path14" />
      <path
         class="cls-1"
         d="m 422.52454,409.23858 c -2.66325,0 -5.15246,-0.54108 -7.46762,-1.62079 -2.31577,-1.08094 -4.18817,-2.75058 -5.61537,-5.00772 -1.42781,-2.25714 -2.14172,-5.10299 -2.14172,-8.53878 0,-3.47243 0.71391,-6.31828 2.14172,-8.53878 1.4272,-2.21806 3.2996,-3.85839 5.61537,-4.91978 2.31516,-1.06139 4.80436,-1.59148 7.46762,-1.59148 2.62356,0 5.09383,0.53009 7.4096,1.59148 2.31577,1.06139 4.18695,2.70173 5.61537,4.91978 1.4272,2.2205 2.14172,5.06635 2.14172,8.53878 0,3.43579 -0.71452,6.28164 -2.14172,8.53878 -1.42842,2.25714 -3.2996,3.92679 -5.61537,5.00772 -2.31577,1.07971 -4.78604,1.62079 -7.4096,1.62079 z m 0,-6.83127 c 1.77469,0 3.25075,-0.63635 4.42817,-1.91026 1.17682,-1.27392 1.76553,-3.41502 1.76553,-6.42576 0,-3.04738 -0.60764,-5.18116 -1.82354,-6.39645 -1.21529,-1.21529 -2.67241,-1.82354 -4.37016,-1.82354 -1.73683,0 -3.21288,0.60826 -4.42878,1.82354 -1.21529,1.21529 -1.82354,3.34907 -1.82354,6.39645 0,3.01074 0.59787,5.15185 1.79484,6.42576 1.19575,1.27392 2.68158,1.91026 4.45748,1.91026 z"
         id="path15" />
      <path
         class="cls-1"
         d="m 441.97527,408.54361 v -28.71258 h 6.94608 l 1.56339,5.26788 c 0.88734,-2.31577 2.10263,-3.93656 3.64648,-4.86238 1.54323,-0.92704 3.41563,-1.33132 5.61537,-1.21529 v 8.79894 c -0.46291,-0.077 -0.86841,-0.1258 -1.21529,-0.14535 -0.34749,-0.0183 -0.73406,-0.0293 -1.15788,-0.0293 -2.12279,0 -3.75396,0.50199 -4.89169,1.50598 -1.13895,1.00399 -1.70751,2.6431 -1.70751,4.91978 v 14.47232 h -8.79894 z"
         id="path16" />
      <path
         class="cls-1"
         d="m 477.57591,420.29466 c -1.58293,0 -3.18418,-0.20275 -4.80497,-0.60703 -1.62079,-0.4055 -3.12616,-1.11025 -4.5155,-2.11302 -1.38934,-1.00399 -2.52768,-2.37439 -3.41502,-4.11 l 7.17814,-2.60524 c 0.53986,1.04185 1.31117,1.75515 2.31516,2.14111 1.00338,0.38596 2.00614,0.57894 3.01013,0.57894 1.85286,0 3.33808,-0.4336 4.45748,-1.30201 1.1188,-0.86841 1.67881,-2.24859 1.67881,-4.13931 v -5.15185 c -1.23544,1.54384 -2.65348,2.68341 -4.25473,3.41502 -1.60186,0.73406 -3.21288,1.10048 -4.83367,1.10048 -2.0837,0 -4.07213,-0.5594 -5.96224,-1.67942 -1.89133,-1.1188 -3.43579,-2.72005 -4.63153,-4.80375 -1.19636,-2.08492 -1.79423,-4.57413 -1.79423,-7.46762 0,-3.35762 0.59787,-6.1082 1.79423,-8.24931 1.19575,-2.14233 2.72127,-3.73381 4.57352,-4.77566 1.85225,-1.04185 3.76251,-1.56339 5.73079,-1.56339 1.81377,0 3.56037,0.4055 5.23918,1.21529 1.67881,0.81101 3.05777,2.00798 4.1387,3.58968 l 1.15788,-3.93656 h 7.58304 v 26.57025 c 0,4.78543 -1.29346,8.29694 -3.87854,10.53576 -2.5857,2.2376 -6.17477,3.35762 -10.76661,3.35762 z m -0.058,-19.62417 c 1.15788,0 2.20889,-0.22107 3.15487,-0.66566 0.94536,-0.44337 1.70751,-1.20552 2.28645,-2.28645 0.57894,-1.07971 0.86841,-2.54661 0.86841,-4.39947 0,-2.81654 -0.6278,-4.76589 -1.88156,-5.84682 -1.25437,-1.07971 -2.73043,-1.62079 -4.42817,-1.62079 -1.73683,0 -3.23304,0.57894 -4.4868,1.73683 -1.25437,1.15788 -1.88095,2.9912 -1.88095,5.49995 0,2.54661 0.62658,4.44832 1.88095,5.70148 1.25376,1.25437 2.74997,1.88095 4.4868,1.88095 z"
         id="path17" />
      <path
         class="cls-1"
         d="m 512.30753,409.23858 c -3.0883,0 -5.81812,-0.60826 -8.19129,-1.82354 -2.37317,-1.21651 -4.22603,-2.96189 -5.55735,-5.23857 -1.33132,-2.27668 -1.99698,-4.99795 -1.99698,-8.16259 0,-3.0486 0.70352,-5.69171 2.11302,-7.93052 1.40827,-2.2376 3.27945,-3.97442 5.61476,-5.21048 2.3347,-1.23483 4.89169,-1.85164 7.67037,-1.85164 3.16403,0 5.87553,0.74261 8.13328,2.22783 2.25775,1.48644 3.96526,3.53106 5.12315,6.13629 1.15788,2.60524 1.63972,5.60621 1.44735,9.00169 h -21.24496 c 0.1539,2.00675 0.89712,3.51274 2.22844,4.5155 1.33132,1.00399 2.80799,1.50476 4.42878,1.50476 1.35025,0 2.51791,-0.20275 3.50235,-0.60826 0.98383,-0.40428 1.74537,-0.91605 2.28645,-1.53285 l 7.0041,2.54661 c -1.50476,2.19973 -3.38632,3.82053 -5.64407,4.86238 -2.25714,1.04185 -4.56375,1.56339 -6.91738,1.56339 z m -6.88867,-18.06201 h 13.08237 c -0.0385,-1.85164 -0.67543,-3.25013 -1.91026,-4.19672 -1.23544,-0.94536 -2.70173,-1.41804 -4.39947,-1.41804 -1.65927,0 -3.13593,0.44459 -4.42817,1.33132 -1.29346,0.88795 -2.07515,2.31577 -2.34447,4.28344 z"
         id="path18" />
    </g>
    <g
       id="g46"
       transform="matrix(1.0857112,0,0,1.0857112,237.32937,-191.72699)">
      <path
         class="cls-2"
         d="m 308.12421,435.54308 c -1.00244,0 -1.86227,-0.2345 -2.58003,-0.70456 -0.71776,-0.469 -1.26598,-1.11546 -1.64625,-1.93938 -0.37974,-0.82286 -0.56988,-1.77248 -0.56988,-2.84886 0,-1.0975 0.20334,-2.05452 0.60949,-2.87316 0.40615,-0.81758 0.97867,-1.45348 1.71756,-1.90663 0.73836,-0.45421 1.604,-0.68132 2.59587,-0.68132 0.88624,0 1.68587,0.20598 2.39782,0.61794 0.71248,0.4109 1.24803,1.00244 1.60664,1.77248 l -1.29767,0.47534 c -0.23239,-0.47534 -0.58361,-0.863 -1.05261,-1.16405 -0.47006,-0.29999 -1.04733,-0.45104 -1.7334,-0.45104 -0.62269,0 -1.18465,0.15845 -1.68587,0.47534 -0.50122,0.31689 -0.89945,0.78906 -1.19468,1.41651 -0.29577,0.62745 -0.44365,1.40066 -0.44365,2.31859 0,0.88624 0.1426,1.64678 0.4278,2.27951 0.28467,0.63273 0.6829,1.11863 1.19468,1.45665 0.51178,0.33696 1.09486,0.50597 1.74924,0.50597 0.68554,0 1.26334,-0.14788 1.7334,-0.44365 0.469,-0.29471 0.8255,-0.68554 1.06793,-1.17039 l 1.2982,0.47428 c -0.37974,0.78167 -0.93959,1.37426 -1.67794,1.78093 -0.73889,0.40668 -1.57759,0.60949 -2.51665,0.60949 z"
         id="path19" />
      <path
         class="cls-2"
         d="m 314.02791,435.35294 v -7.85047 h 0.96546 l 0.42728,1.45559 c 0.27411,-0.47428 0.64646,-0.85667 1.11599,-1.14715 0.46953,-0.29048 1.03148,-0.4352 1.68587,-0.4352 v 1.37637 h -0.22975 c -0.0792,0 -0.15581,0.006 -0.22922,0.0158 -0.89733,0.0739 -1.52267,0.38555 -1.876,0.93483 -0.35333,0.54822 -0.53027,1.30771 -0.53027,2.27845 v 3.37173 h -1.32936 z"
         id="path20" />
      <path
         class="cls-2"
         d="m 321.37241,435.54308 c -0.49646,0 -0.95015,-0.0898 -1.36158,-0.26936 -0.41143,-0.17957 -0.73889,-0.43731 -0.98131,-0.77533 -0.24295,-0.33802 -0.3639,-0.74364 -0.3639,-1.21898 0,-0.62216 0.21866,-1.11335 0.65702,-1.47249 0.43731,-0.35809 1.05472,-0.63484 1.85171,-0.83026 0.79646,-0.19542 1.72759,-0.35069 2.7934,-0.46689 0.0211,-0.66547 -0.11038,-1.17673 -0.39559,-1.53587 -0.28467,-0.35809 -0.74364,-0.53766 -1.3769,-0.53766 -0.47481,0 -0.86247,0.10774 -1.16352,0.32429 -0.30052,0.21654 -0.4933,0.51442 -0.5778,0.89469 l -1.28183,-0.38027 c 0.21073,-0.60104 0.58783,-1.06898 1.13183,-1.40066 0.54294,-0.33274 1.16828,-0.49858 1.87547,-0.49858 1.08694,0 1.88075,0.25563 2.38197,0.76794 0.50122,0.51125 0.75209,1.31616 0.75209,2.41366 v 1.83586 c 0,0.65385 0.0264,1.21898 0.0792,1.69326 0.0523,0.47534 0.11567,0.8968 0.18961,1.26651 h -1.21845 l -0.31689,-1.07638 c -0.23186,0.39083 -0.5646,0.69928 -0.99715,0.92638 -0.43256,0.22605 -0.99187,0.34013 -1.67742,0.34013 z m 0.28467,-1.06053 c 0.41143,0 0.80174,-0.0739 1.17144,-0.22182 0.36918,-0.14788 0.6697,-0.39823 0.90209,-0.75209 0.23186,-0.35281 0.34805,-0.83554 0.34805,-1.4482 v -0.49013 c -0.80174,0.0845 -1.49837,0.18697 -2.08938,0.30844 -0.59101,0.12147 -1.04733,0.29048 -1.36897,0.50597 -0.32217,0.21654 -0.48273,0.50491 -0.48273,0.863 0,0.36971 0.13468,0.66759 0.40351,0.89469 0.26936,0.22711 0.64118,0.34013 1.11599,0.34013 z"
         id="path21" />
      <path
         class="cls-2"
         d="M 327.9569,435.35294 V 428.563 h -1.32936 v -1.06053 h 1.32936 v -1.17144 c 0,-0.53872 0.0528,-0.96546 0.15845,-1.28236 0.1051,-0.31689 0.31108,-0.54083 0.61688,-0.67287 0.30633,-0.13204 0.74945,-0.19753 1.32989,-0.19753 h 0.85455 v 1.12391 h -0.82286 c -0.33802,0 -0.55667,0.0687 -0.65702,0.20598 -0.10035,0.13732 -0.15052,0.40562 -0.15052,0.80702 v 1.18729 h 1.63041 v 1.06053 h -1.63041 v 6.78994 h -1.32936 z"
         id="path22" />
      <path
         class="cls-2"
         d="m 334.81022,435.35294 c -0.49594,0 -0.87832,-0.0496 -1.14768,-0.15 -0.26883,-0.10035 -0.45368,-0.29365 -0.55403,-0.5778 -0.10035,-0.2852 -0.15,-0.69716 -0.15,-1.23482 V 428.563 h -1.32989 v -1.06053 h 1.32989 v -1.97846 h 1.32936 v 1.97846 h 1.5195 v 1.06053 h -1.5195 v 4.6055 c 0,0.4014 0.0396,0.67076 0.11883,0.80702 0.0792,0.13732 0.30844,0.20598 0.68871,0.20598 h 0.71195 v 1.17144 h -0.99715 z"
         id="path23" />
      <path
         class="cls-2"
         d="M 338.24428,435.35294 V 428.563 h -1.09169 v -1.06053 h 2.42158 v 7.85047 z m 0.66495,-9.33881 c -0.26355,0 -0.4933,-0.0972 -0.68818,-0.2926 -0.19542,-0.19542 -0.29313,-0.42992 -0.29313,-0.70456 0,-0.27464 0.0977,-0.50597 0.29313,-0.69611 0.19489,-0.19014 0.42464,-0.2852 0.68818,-0.2852 0.27411,0 0.50914,0.0951 0.70456,0.2852 0.19489,0.19014 0.2926,0.42147 0.2926,0.69611 0,0.27464 -0.0977,0.50914 -0.2926,0.70456 -0.19542,0.19542 -0.43045,0.2926 -0.70456,0.2926 z"
         id="path24" />
      <path
         class="cls-2"
         d="m 341.94875,435.35294 v -7.85047 h 0.98131 l 0.34805,1.18623 c 0.22182,-0.36865 0.53291,-0.68026 0.93378,-0.93378 0.40087,-0.25246 0.9343,-0.37921 1.59872,-0.37921 0.94962,0 1.61985,0.27675 2.01015,0.83026 0.39031,0.55456 0.58572,1.28024 0.58572,2.17705 v 4.96992 h -1.32936 v -4.57487 c 0,-0.40034 -0.037,-0.77216 -0.11091,-1.11546 -0.0739,-0.34224 -0.23503,-0.62005 -0.48273,-0.83131 -0.24823,-0.21021 -0.62533,-0.31584 -1.13183,-0.31584 -0.64382,0 -1.15032,0.21866 -1.5195,0.65702 -0.36918,0.43731 -0.55403,1.07849 -0.55403,1.92248 v 4.25797 h -1.32936 z"
         id="path25" />
      <path
         class="cls-2"
         d="m 353.59823,438.39194 c -0.42252,0 -0.84188,-0.0613 -1.25859,-0.18168 -0.41724,-0.12148 -0.78642,-0.32006 -1.10807,-0.59364 -0.32217,-0.27464 -0.55139,-0.6285 -0.68818,-1.06053 l 1.32936,-0.36443 c 0.14735,0.41196 0.39031,0.68554 0.7278,0.82286 0.33802,0.13732 0.67023,0.20598 0.99768,0.20598 0.8123,0 1.36369,-0.19542 1.65365,-0.58519 0.29048,-0.39083 0.4352,-0.96546 0.4352,-1.72601 v -1.04469 c -0.24242,0.41196 -0.5646,0.73941 -0.96546,0.98131 -0.40087,0.24295 -0.91265,0.36443 -1.53534,0.36443 -0.58044,0 -1.12338,-0.15 -1.62988,-0.45104 -0.5065,-0.30104 -0.91582,-0.74364 -1.2269,-1.32989 -0.31161,-0.58519 -0.46689,-1.29503 -0.46689,-2.12846 0,-0.84399 0.15528,-1.55594 0.46689,-2.13691 0.31108,-0.57991 0.7204,-1.02356 1.2269,-1.32989 0.5065,-0.30527 1.04944,-0.45844 1.62988,-0.45844 0.62269,0 1.13447,0.12359 1.53534,0.37182 0.40087,0.24823 0.72304,0.5778 0.96546,0.9887 l 0.36443,-1.23377 h 0.96546 v 7.10683 c 0,1.24433 -0.25087,2.18656 -0.75209,2.82457 -0.50122,0.63907 -1.3901,0.95807 -2.66665,0.95807 z m -0.0792,-4.28966 c 0.40087,0 0.76741,-0.0951 1.10014,-0.2852 0.33221,-0.18908 0.60104,-0.49013 0.80702,-0.90209 0.20598,-0.4109 0.30844,-0.94962 0.30844,-1.61404 0,-0.66442 -0.10246,-1.20313 -0.30844,-1.61404 -0.20598,-0.41196 -0.47481,-0.70984 -0.80702,-0.89469 -0.33274,-0.18485 -0.69928,-0.27675 -1.10014,-0.27675 -0.64382,0 -1.17409,0.23978 -1.5908,0.71935 -0.41724,0.48062 -0.62533,1.16933 -0.62533,2.06614 0,0.89681 0.20809,1.58869 0.62533,2.07353 0.41671,0.4859 0.94698,0.7278 1.5908,0.7278 z"
         id="path26" />
      <path
         class="cls-2"
         d="m 368.14411,435.54308 c -1.00244,0 -1.86227,-0.2345 -2.58003,-0.70456 -0.71776,-0.469 -1.26598,-1.11546 -1.64625,-1.93938 -0.37974,-0.82286 -0.56988,-1.77248 -0.56988,-2.84886 0,-1.0975 0.20334,-2.05452 0.60949,-2.87316 0.40615,-0.81758 0.97867,-1.45348 1.71756,-1.90663 0.73836,-0.45421 1.604,-0.68132 2.59587,-0.68132 0.88624,0 1.68587,0.20598 2.39782,0.61794 0.71248,0.4109 1.24803,1.00244 1.60664,1.77248 l -1.29767,0.47534 c -0.23239,-0.47534 -0.58361,-0.863 -1.05261,-1.16405 -0.47006,-0.29999 -1.04733,-0.45104 -1.7334,-0.45104 -0.62269,0 -1.18465,0.15845 -1.68587,0.47534 -0.50122,0.31689 -0.89945,0.78906 -1.19468,1.41651 -0.29577,0.62745 -0.44365,1.40066 -0.44365,2.31859 0,0.88624 0.1426,1.64678 0.4278,2.27951 0.28467,0.63273 0.6829,1.11863 1.19468,1.45665 0.51178,0.33696 1.09486,0.50597 1.74924,0.50597 0.68554,0 1.26334,-0.14788 1.7334,-0.44365 0.469,-0.29471 0.8255,-0.68554 1.06793,-1.17039 l 1.2982,0.47428 c -0.37974,0.78167 -0.93959,1.37426 -1.67794,1.78093 -0.73889,0.40668 -1.57759,0.60949 -2.51665,0.60949 z"
         id="path27" />
      <path
         class="cls-2"
         d="m 377.30863,435.54308 c -0.45368,0 -0.90209,-0.0792 -1.34521,-0.23767 -0.44312,-0.15845 -0.84663,-0.40351 -1.21106,-0.73625 -0.3639,-0.33168 -0.65649,-0.75632 -0.87832,-1.27391 -0.2213,-0.51653 -0.33221,-1.12919 -0.33221,-1.83586 0,-0.70667 0.11091,-1.31933 0.33221,-1.83586 0.22182,-0.51759 0.51442,-0.94223 0.87832,-1.27496 0.36443,-0.33168 0.76794,-0.5778 1.21106,-0.73519 0.44312,-0.15845 0.89152,-0.23767 1.34521,-0.23767 0.45369,0 0.90473,0.0792 1.35366,0.23767 0.4484,0.15739 0.85455,0.40351 1.21845,0.73519 0.36443,0.33274 0.65438,0.75737 0.87093,1.27496 0.21601,0.51653 0.32429,1.12919 0.32429,1.83586 0,0.70667 -0.10827,1.31933 -0.32429,1.83586 -0.21654,0.51759 -0.5065,0.94223 -0.87093,1.27391 -0.3639,0.33274 -0.77005,0.5778 -1.21845,0.73625 -0.44893,0.15845 -0.89997,0.23767 -1.35366,0.23767 z m 0,-1.17144 c 0.38027,0 0.74945,-0.10246 1.10807,-0.30844 0.35862,-0.20598 0.65438,-0.52287 0.88677,-0.94962 0.23186,-0.4278 0.34805,-0.9792 0.34805,-1.65418 0,-0.67498 -0.11619,-1.22743 -0.34805,-1.65418 -0.23239,-0.4278 -0.52815,-0.74364 -0.88677,-0.94962 -0.35862,-0.20598 -0.7278,-0.30844 -1.10807,-0.30844 -0.36918,0 -0.73572,0.10246 -1.09962,0.30844 -0.36443,0.20598 -0.6623,0.52182 -0.89469,0.94962 -0.23186,0.42675 -0.34805,0.9792 -0.34805,1.65418 0,0.67498 0.11619,1.22637 0.34805,1.65418 0.23239,0.42675 0.53027,0.74364 0.89469,0.94962 0.3639,0.20598 0.73044,0.30844 1.09962,0.30844 z"
         id="path28" />
      <path
         class="cls-2"
         d="m 385.64976,435.54308 c -0.591,0 -1.14504,-0.16161 -1.6621,-0.48273 -0.51706,-0.32217 -0.93113,-0.78589 -1.24222,-1.39327 -0.31161,-0.60632 -0.46689,-1.34257 -0.46689,-2.20768 0,-0.86511 0.15528,-1.60136 0.46689,-2.20874 0.31108,-0.60632 0.72515,-1.07004 1.24222,-1.39221 0.51707,-0.32217 1.0711,-0.48273 1.6621,-0.48273 0.62269,0 1.14504,0.12359 1.56703,0.37182 0.42199,0.24823 0.74945,0.5778 0.98131,0.9887 v -3.95693 h 1.32989 v 7.61386 c 0,0.26408 0.01,0.65174 0.0317,1.16299 0.0206,0.51231 0.0998,1.11124 0.23714,1.79678 h -1.25014 l -0.34858,-1.18729 c -0.23186,0.42252 -0.55931,0.75737 -0.98131,1.0056 -0.42199,0.24718 -0.94434,0.37182 -1.56703,0.37182 z m 0.34858,-1.13976 c 0.67498,0 1.21581,-0.2588 1.62196,-0.77533 0.40615,-0.51759 0.60949,-1.2401 0.60949,-2.1686 0,-0.93906 -0.20334,-1.66474 -0.60949,-2.17705 -0.40615,-0.51125 -0.94698,-0.76688 -1.62196,-0.76688 -0.67551,0 -1.21634,0.25563 -1.62249,0.76688 -0.40668,0.51231 -0.60949,1.23799 -0.60949,2.17705 0,0.92849 0.20281,1.65101 0.60949,2.1686 0.40615,0.51653 0.94698,0.77533 1.62249,0.77533 z"
         id="path29" />
      <path
         class="cls-2"
         d="m 395.05195,435.54308 c -0.82286,0 -1.5195,-0.18274 -2.08938,-0.54611 -0.56935,-0.36443 -1.00508,-0.85455 -1.3056,-1.47249 -0.30052,-0.61688 -0.45104,-1.31088 -0.45104,-2.08092 0,-0.83343 0.16848,-1.55383 0.5065,-2.1612 0.33749,-0.60632 0.79381,-1.07638 1.36897,-1.40806 0.57516,-0.33274 1.22109,-0.49858 1.93885,-0.49858 0.62269,0 1.17144,0.12359 1.64625,0.37182 0.47481,0.24823 0.86776,0.57991 1.17937,0.99715 0.31108,0.41724 0.53819,0.88941 0.68079,1.41651 0.14207,0.52815 0.19225,1.0711 0.15,1.62988 h -6.0463 c 0.0211,0.65491 0.16637,1.17144 0.4352,1.55172 0.26936,0.38027 0.58836,0.64646 0.95754,0.79962 0.36918,0.15316 0.71248,0.22922 1.02884,0.22922 0.44312,0 0.81547,-0.0708 1.11599,-0.21337 0.30105,-0.1426 0.54083,-0.32957 0.7204,-0.56196 l 1.28183,0.37921 c -0.28467,0.45421 -0.69135,0.8292 -1.21845,1.12391 -0.52815,0.29577 -1.16088,0.44365 -1.89977,0.44365 z m -2.40574,-4.81148 h 4.62187 c 0,-0.36971 -0.0924,-0.72357 -0.27675,-1.06053 -0.18485,-0.33802 -0.44365,-0.61477 -0.77586,-0.83131 -0.33221,-0.21654 -0.73096,-0.32429 -1.19521,-0.32429 -0.39031,0 -0.75948,0.0739 -1.10754,0.22077 -0.34858,0.14788 -0.6359,0.38555 -0.863,0.71301 -0.2271,0.32746 -0.36126,0.7542 -0.40351,1.28236 z"
         id="path30" />
      <path
         class="cls-2"
         d="m 399.84811,437.45816 0.74364,-1.93093 c -0.24295,-0.0422 -0.44576,-0.15845 -0.60949,-0.34858 -0.16373,-0.19013 -0.24506,-0.4109 -0.24506,-0.66442 0,-0.27464 0.0998,-0.51231 0.30052,-0.71195 0.2007,-0.2007 0.43784,-0.30105 0.71248,-0.30105 0.28467,0 0.52763,0.10035 0.7278,0.30105 0.2007,0.19964 0.30105,0.43731 0.30105,0.71195 0,0.12676 -0.0264,0.2588 -0.0792,0.39506 l -0.98131,2.54887 h -0.8704 z"
         id="path31" />
      <path
         class="cls-2"
         d="m 408.01495,435.35294 v -10.57363 h 4.25745 c 0.77058,0 1.39538,0.12676 1.876,0.38027 0.48009,0.25351 0.83343,0.5778 1.06053,0.97286 0.22658,0.39612 0.34013,0.82075 0.34013,1.27496 0,0.42147 -0.0951,0.83871 -0.28467,1.25067 -0.19014,0.4109 -0.46478,0.77005 -0.82339,1.07532 0.52763,0.27464 0.92057,0.64752 1.17937,1.11652 0.25827,0.47006 0.38766,0.95701 0.38766,1.46404 0,0.50597 -0.1294,0.99187 -0.38766,1.45665 -0.2588,0.46372 -0.64646,0.84399 -1.16352,1.1387 -0.51706,0.29577 -1.16088,0.44365 -1.93093,0.44365 h -4.51096 z m 1.48781,-6.0463 h 2.92808 c 0.53819,0 0.9417,-0.16901 1.21106,-0.50703 0.26883,-0.33696 0.40351,-0.70667 0.40351,-1.10807 0,-0.27358 -0.0607,-0.53766 -0.18221,-0.79117 -0.12147,-0.25351 -0.30052,-0.46161 -0.53819,-0.62533 -0.23714,-0.16267 -0.53555,-0.24506 -0.89416,-0.24506 h -2.92808 v 3.27666 z m 0,4.79563 h 3.1816 c 0.38978,0 0.71723,-0.0898 0.98131,-0.26936 0.26355,-0.17852 0.46425,-0.40879 0.60104,-0.68766 0.13732,-0.27992 0.20598,-0.57252 0.20598,-0.87885 0,-0.30633 -0.066,-0.59364 -0.19806,-0.863 -0.13204,-0.2683 -0.33221,-0.49013 -0.60104,-0.66442 -0.26936,-0.17429 -0.60421,-0.26091 -1.00508,-0.26091 h -3.16575 v 3.62419 z"
         id="path32" />
      <path
         class="cls-2"
         d="m 420.20262,435.54308 c -0.61213,0 -1.10278,-0.12993 -1.47196,-0.38766 -0.36971,-0.2588 -0.6359,-0.61794 -0.79962,-1.07638 -0.16373,-0.45949 -0.24506,-0.98448 -0.24506,-1.57495 v -5.01746 h 1.32936 v 4.70057 c 0,0.58097 0.0687,1.02884 0.20598,1.34574 0.13679,0.31584 0.32957,0.53555 0.5778,0.65702 0.2477,0.12148 0.53555,0.18168 0.86247,0.18168 0.62269,0 1.11071,-0.21866 1.46404,-0.65702 0.35333,-0.43731 0.53027,-1.07321 0.53027,-1.90769 v -4.3203 h 1.32989 v 7.86632 h -0.99715 l -0.33274,-1.13976 c -0.2213,0.38027 -0.52234,0.69611 -0.90209,0.94962 -0.37975,0.25351 -0.8968,0.38027 -1.55119,0.38027 z"
         id="path33" />
      <path
         class="cls-2"
         d="M 426.89749,435.35294 V 428.563 h -1.09169 v -1.06053 h 2.42158 v 7.85047 z m 0.66495,-9.33881 c -0.26355,0 -0.4933,-0.0972 -0.68818,-0.2926 -0.19542,-0.19542 -0.29313,-0.42992 -0.29313,-0.70456 0,-0.27464 0.0977,-0.50597 0.29313,-0.69611 0.19489,-0.19014 0.42464,-0.2852 0.68818,-0.2852 0.27411,0 0.50914,0.0951 0.70456,0.2852 0.19489,0.19014 0.2926,0.42147 0.2926,0.69611 0,0.27464 -0.0977,0.50914 -0.2926,0.70456 -0.19542,0.19542 -0.43045,0.2926 -0.70456,0.2926 z"
         id="path34" />
      <path
         class="cls-2"
         d="m 432.45367,435.35294 c -0.49594,0 -0.87832,-0.0496 -1.14768,-0.15 -0.26883,-0.10035 -0.45368,-0.29365 -0.5535,-0.5778 -0.10088,-0.2852 -0.15052,-0.69716 -0.15052,-1.23482 v -8.59517 h 1.32936 v 8.37335 c 0,0.4014 0.0423,0.67076 0.12676,0.80702 0.0845,0.13732 0.31108,0.20598 0.68079,0.20598 h 0.30052 v 1.17144 h -0.58572 z"
         id="path35" />
      <path
         class="cls-2"
         d="m 437.2493,435.54308 c -0.591,0 -1.14504,-0.16161 -1.6621,-0.48273 -0.51706,-0.32217 -0.93113,-0.78589 -1.24222,-1.39327 -0.31161,-0.60632 -0.46689,-1.34257 -0.46689,-2.20768 0,-0.86511 0.15528,-1.60136 0.46689,-2.20874 0.31108,-0.60632 0.72515,-1.07004 1.24222,-1.39221 0.51707,-0.32217 1.0711,-0.48273 1.6621,-0.48273 0.62269,0 1.14504,0.12359 1.56703,0.37182 0.42199,0.24823 0.74945,0.5778 0.98131,0.9887 v -3.95693 h 1.32989 v 7.61386 c 0,0.26408 0.01,0.65174 0.0317,1.16299 0.0206,0.51231 0.0998,1.11124 0.23714,1.79678 h -1.25014 l -0.34858,-1.18729 c -0.23186,0.42252 -0.55931,0.75737 -0.98131,1.0056 -0.42199,0.24718 -0.94434,0.37182 -1.56703,0.37182 z m 0.34858,-1.13976 c 0.67498,0 1.21581,-0.2588 1.62196,-0.77533 0.40615,-0.51759 0.60949,-1.2401 0.60949,-2.1686 0,-0.93906 -0.20334,-1.66474 -0.60949,-2.17705 -0.40615,-0.51125 -0.94698,-0.76688 -1.62196,-0.76688 -0.67551,0 -1.21634,0.25563 -1.62249,0.76688 -0.40668,0.51231 -0.60949,1.23799 -0.60949,2.17705 0,0.92849 0.20281,1.65101 0.60949,2.1686 0.40615,0.51653 0.94698,0.77533 1.62249,0.77533 z"
         id="path36" />
      <path
         class="cls-2"
         d="M 444.00808,435.35294 V 428.563 h -1.09169 v -1.06053 h 2.42158 v 7.85047 z m 0.66495,-9.33881 c -0.26355,0 -0.4933,-0.0972 -0.68818,-0.2926 -0.19542,-0.19542 -0.29313,-0.42992 -0.29313,-0.70456 0,-0.27464 0.0977,-0.50597 0.29313,-0.69611 0.19489,-0.19014 0.42464,-0.2852 0.68818,-0.2852 0.27411,0 0.50914,0.0951 0.70456,0.2852 0.19489,0.19014 0.2926,0.42147 0.2926,0.69611 0,0.27464 -0.0977,0.50914 -0.2926,0.70456 -0.19542,0.19542 -0.43045,0.2926 -0.70456,0.2926 z"
         id="path37" />
      <path
         class="cls-2"
         d="m 447.71202,435.35294 v -7.85047 h 0.98131 l 0.34805,1.18623 c 0.22182,-0.36865 0.53291,-0.68026 0.93378,-0.93378 0.40087,-0.25246 0.9343,-0.37921 1.59872,-0.37921 0.94962,0 1.61985,0.27675 2.01015,0.83026 0.39031,0.55456 0.58572,1.28024 0.58572,2.17705 v 4.96992 h -1.32936 v -4.57487 c 0,-0.40034 -0.037,-0.77216 -0.11091,-1.11546 -0.0739,-0.34224 -0.23503,-0.62005 -0.48273,-0.83131 -0.24823,-0.21021 -0.62533,-0.31584 -1.13183,-0.31584 -0.64382,0 -1.15032,0.21866 -1.5195,0.65702 -0.36918,0.43731 -0.55403,1.07849 -0.55403,1.92248 v 4.25797 h -1.32936 z"
         id="path38" />
      <path
         class="cls-2"
         d="m 459.36151,438.39194 c -0.42252,0 -0.84188,-0.0613 -1.25859,-0.18168 -0.41724,-0.12148 -0.78642,-0.32006 -1.10807,-0.59364 -0.32217,-0.27464 -0.55139,-0.6285 -0.68818,-1.06053 l 1.32936,-0.36443 c 0.14735,0.41196 0.39031,0.68554 0.7278,0.82286 0.33802,0.13732 0.67023,0.20598 0.99768,0.20598 0.8123,0 1.36369,-0.19542 1.65365,-0.58519 0.29048,-0.39083 0.4352,-0.96546 0.4352,-1.72601 v -1.04469 c -0.24242,0.41196 -0.5646,0.73941 -0.96546,0.98131 -0.40087,0.24295 -0.91265,0.36443 -1.53534,0.36443 -0.58044,0 -1.12338,-0.15 -1.62988,-0.45104 -0.5065,-0.30104 -0.91582,-0.74364 -1.2269,-1.32989 -0.31161,-0.58519 -0.46689,-1.29503 -0.46689,-2.12846 0,-0.84399 0.15528,-1.55594 0.46689,-2.13691 0.31108,-0.57991 0.7204,-1.02356 1.2269,-1.32989 0.5065,-0.30527 1.04944,-0.45844 1.62988,-0.45844 0.62269,0 1.13447,0.12359 1.53534,0.37182 0.40087,0.24823 0.72304,0.5778 0.96546,0.9887 l 0.36443,-1.23377 h 0.96546 v 7.10683 c 0,1.24433 -0.25087,2.18656 -0.75209,2.82457 -0.50122,0.63907 -1.3901,0.95807 -2.66665,0.95807 z m -0.0792,-4.28966 c 0.40087,0 0.76741,-0.0951 1.10014,-0.2852 0.33221,-0.18908 0.60104,-0.49013 0.80702,-0.90209 0.20598,-0.4109 0.30844,-0.94962 0.30844,-1.61404 0,-0.66442 -0.10246,-1.20313 -0.30844,-1.61404 -0.20598,-0.41196 -0.47481,-0.70984 -0.80702,-0.89469 -0.33274,-0.18485 -0.69928,-0.27675 -1.10014,-0.27675 -0.64382,0 -1.17409,0.23978 -1.5908,0.71935 -0.41724,0.48062 -0.62533,1.16933 -0.62533,2.06614 0,0.89681 0.20809,1.58869 0.62533,2.07353 0.41671,0.4859 0.94698,0.7278 1.5908,0.7278 z"
         id="path39" />
      <path
         class="cls-2"
         d="m 473.0053,435.54308 c -0.58044,0 -1.14504,-0.0898 -1.69379,-0.26936 -0.54875,-0.17957 -1.03148,-0.45316 -1.4482,-0.82286 -0.41724,-0.36971 -0.7204,-0.83871 -0.91001,-1.40911 l 1.3769,-0.4109 c 0.12676,0.37921 0.33221,0.69399 0.61741,0.94117 0.28467,0.24823 0.61477,0.42992 0.98923,0.54611 0.37446,0.11619 0.75156,0.17429 1.13183,0.17429 0.42199,0 0.82286,-0.0687 1.20261,-0.20598 0.38027,-0.13626 0.68871,-0.34541 0.92638,-0.62533 0.23714,-0.27887 0.35598,-0.62956 0.35598,-1.05208 0,-0.43309 -0.15845,-0.77533 -0.47481,-1.02884 -0.31689,-0.25351 -0.86564,-0.48062 -1.64625,-0.68026 l -1.34521,-0.30105 c -0.4859,-0.12676 -0.96335,-0.29577 -1.43288,-0.50703 -0.46953,-0.21021 -0.85455,-0.51125 -1.15507,-0.90209 -0.30105,-0.38978 -0.45104,-0.91265 -0.45104,-1.5665 0,-0.6021 0.18697,-1.11335 0.56143,-1.53587 0.37446,-0.42147 0.86036,-0.74364 1.45665,-0.96546 0.59576,-0.22182 1.21581,-0.33274 1.85963,-0.33274 0.49594,0 0.98395,0.0718 1.46404,0.21443 0.48009,0.1426 0.91265,0.35914 1.2982,0.64857 0.38502,0.29048 0.68818,0.6623 0.91001,1.11652 l -1.36105,0.39506 c -0.2007,-0.36865 -0.52551,-0.64857 -0.97392,-0.83871 -0.44841,-0.19014 -0.91529,-0.2852 -1.40066,-0.2852 -0.37974,0 -0.74364,0.0613 -1.09222,0.18274 -0.34805,0.12148 -0.63273,0.30316 -0.85455,0.54611 -0.22182,0.24189 -0.33221,0.54822 -0.33221,0.91793 0,0.34753 0.10246,0.62745 0.30844,0.83871 0.20598,0.21126 0.48009,0.3771 0.82286,0.49858 0.34277,0.12148 0.7204,0.22922 1.13183,0.32429 l 1.1556,0.25351 c 0.53819,0.12676 1.04469,0.30105 1.5195,0.52182 0.47481,0.22182 0.85983,0.53344 1.1556,0.93378 0.29524,0.4014 0.44312,0.94011 0.44312,1.61509 0,0.48484 -0.11619,0.92004 -0.34805,1.3056 -0.23239,0.38555 -0.544,0.70667 -0.9343,0.96546 -0.3903,0.25879 -0.83079,0.45632 -1.32144,0.59364 -0.49065,0.13732 -0.99451,0.20598 -1.51158,0.20598 z"
         id="path40" />
      <path
         class="cls-2"
         d="m 481.34695,435.54308 c -0.61213,0 -1.10278,-0.12993 -1.47196,-0.38766 -0.36971,-0.2588 -0.6359,-0.61794 -0.79962,-1.07638 -0.16373,-0.45949 -0.24506,-0.98448 -0.24506,-1.57495 v -5.01746 h 1.32936 v 4.70057 c 0,0.58097 0.0687,1.02884 0.20598,1.34574 0.13679,0.31584 0.32957,0.53555 0.5778,0.65702 0.2477,0.12148 0.53555,0.18168 0.86247,0.18168 0.62269,0 1.11071,-0.21866 1.46404,-0.65702 0.35333,-0.43731 0.53027,-1.07321 0.53027,-1.90769 v -4.3203 h 1.32989 v 7.86632 h -0.99715 l -0.33274,-1.13976 c -0.2213,0.38027 -0.52234,0.69611 -0.90209,0.94962 -0.37975,0.25351 -0.8968,0.38027 -1.55119,0.38027 z"
         id="path41" />
      <path
         class="cls-2"
         d="m 490.49563,435.54308 c -0.74945,0 -1.39855,-0.17746 -1.9473,-0.53027 -0.54875,-0.35386 -0.97075,-0.8366 -1.26598,-1.4482 -0.29577,-0.61266 -0.44312,-1.31405 -0.44312,-2.10522 0,-0.78061 0.15528,-1.47989 0.46689,-2.09783 0.31108,-0.61688 0.75156,-1.10173 1.32144,-1.45559 0.56988,-0.35386 1.2401,-0.53027 2.01015,-0.53027 0.7072,0 1.31405,0.17429 1.82055,0.52182 0.5065,0.34858 0.88624,0.76582 1.13976,1.25067 l -1.21898,0.44365 c -0.16901,-0.31689 -0.41671,-0.57041 -0.74417,-0.76054 -0.32693,-0.18908 -0.69082,-0.28415 -1.09169,-0.28415 -0.39083,0 -0.76001,0.10246 -1.10807,0.30844 -0.34858,0.20598 -0.62797,0.52182 -0.83924,0.94962 -0.21073,0.42675 -0.31636,0.97286 -0.31636,1.63833 0,0.65385 0.10827,1.19996 0.32429,1.63833 0.21654,0.43731 0.49594,0.76265 0.83924,0.97286 0.34277,0.21126 0.70931,0.31689 1.10014,0.31689 0.43256,0 0.80966,-0.0972 1.1313,-0.2926 0.32217,-0.19542 0.56724,-0.44048 0.73625,-0.73625 l 1.21898,0.44365 c -0.29577,0.50597 -0.71776,0.92533 -1.26651,1.25806 -0.54875,0.33168 -1.17144,0.49858 -1.86755,0.49858 z"
         id="path42" />
      <path
         class="cls-2"
         d="m 498.41001,435.54308 c -0.74945,0 -1.39855,-0.17746 -1.9473,-0.53027 -0.54875,-0.35386 -0.97075,-0.8366 -1.26598,-1.4482 -0.29577,-0.61266 -0.44312,-1.31405 -0.44312,-2.10522 0,-0.78061 0.15528,-1.47989 0.46689,-2.09783 0.31108,-0.61688 0.75156,-1.10173 1.32144,-1.45559 0.56988,-0.35386 1.2401,-0.53027 2.01015,-0.53027 0.7072,0 1.31405,0.17429 1.82055,0.52182 0.5065,0.34858 0.88624,0.76582 1.13976,1.25067 l -1.21898,0.44365 c -0.16901,-0.31689 -0.41671,-0.57041 -0.74417,-0.76054 -0.32693,-0.18908 -0.69082,-0.28415 -1.09169,-0.28415 -0.39083,0 -0.76001,0.10246 -1.10807,0.30844 -0.34858,0.20598 -0.62797,0.52182 -0.83924,0.94962 -0.21073,0.42675 -0.31636,0.97286 -0.31636,1.63833 0,0.65385 0.10827,1.19996 0.32429,1.63833 0.21654,0.43731 0.49594,0.76265 0.83924,0.97286 0.34277,0.21126 0.70931,0.31689 1.10014,0.31689 0.43256,0 0.80966,-0.0972 1.1313,-0.2926 0.32217,-0.19542 0.56724,-0.44048 0.73625,-0.73625 l 1.21898,0.44365 c -0.29577,0.50597 -0.71776,0.92533 -1.26651,1.25806 -0.54875,0.33168 -1.17144,0.49858 -1.86755,0.49858 z"
         id="path43" />
      <path
         class="cls-2"
         d="m 506.51347,435.54308 c -0.82286,0 -1.5195,-0.18274 -2.08938,-0.54611 -0.56935,-0.36443 -1.00508,-0.85455 -1.3056,-1.47249 -0.30052,-0.61688 -0.45104,-1.31088 -0.45104,-2.08092 0,-0.83343 0.16848,-1.55383 0.5065,-2.1612 0.33749,-0.60632 0.79381,-1.07638 1.36897,-1.40806 0.57516,-0.33274 1.22109,-0.49858 1.93885,-0.49858 0.62269,0 1.17144,0.12359 1.64625,0.37182 0.47481,0.24823 0.86776,0.57991 1.17937,0.99715 0.31108,0.41724 0.53819,0.88941 0.68079,1.41651 0.14207,0.52815 0.19225,1.0711 0.15,1.62988 h -6.0463 c 0.0211,0.65491 0.16637,1.17144 0.4352,1.55172 0.26936,0.38027 0.58836,0.64646 0.95754,0.79962 0.36918,0.15316 0.71248,0.22922 1.02884,0.22922 0.44312,0 0.81547,-0.0708 1.11599,-0.21337 0.30105,-0.1426 0.54083,-0.32957 0.7204,-0.56196 l 1.28183,0.37921 c -0.28467,0.45421 -0.69135,0.8292 -1.21845,1.12391 -0.52815,0.29577 -1.16088,0.44365 -1.89977,0.44365 z m -2.40574,-4.81148 h 4.62187 c 0,-0.36971 -0.0924,-0.72357 -0.27675,-1.06053 -0.18485,-0.33802 -0.44365,-0.61477 -0.77586,-0.83131 -0.33221,-0.21654 -0.73096,-0.32429 -1.19521,-0.32429 -0.39031,0 -0.75948,0.0739 -1.10754,0.22077 -0.34858,0.14788 -0.6359,0.38555 -0.863,0.71301 -0.2271,0.32746 -0.36126,0.7542 -0.40351,1.28236 z"
         id="path44" />
      <path
         class="cls-2"
         d="m 514.38032,435.54308 c -0.45421,0 -0.89997,-0.0718 -1.33781,-0.21337 -0.43784,-0.1426 -0.82814,-0.35914 -1.17092,-0.64963 -0.3433,-0.28943 -0.60421,-0.65702 -0.78378,-1.09962 l 1.28236,-0.47534 c 0.11567,0.46478 0.37182,0.79962 0.76741,1.0056 0.39559,0.20598 0.80966,0.30844 1.24275,0.30844 0.31636,0 0.61424,-0.0475 0.89416,-0.1426 0.27939,-0.0951 0.50914,-0.23239 0.68871,-0.41196 0.17904,-0.17852 0.26883,-0.3845 0.26883,-0.61688 0,-0.43203 -0.17165,-0.73836 -0.51442,-0.91793 -0.34277,-0.17957 -0.75209,-0.31689 -1.2269,-0.41196 l -1.09169,-0.22077 c -0.38027,-0.0845 -0.73361,-0.20387 -1.06053,-0.35703 -0.32746,-0.15211 -0.59153,-0.37182 -0.7917,-0.65597 -0.2007,-0.2852 -0.30052,-0.66547 -0.30052,-1.13976 0,-0.47534 0.14735,-0.87357 0.44312,-1.19574 0.29524,-0.32112 0.67287,-0.56724 1.13183,-0.73519 0.45897,-0.16901 0.9417,-0.25351 1.4482,-0.25351 0.62216,0 1.21053,0.12887 1.76456,0.38766 0.55403,0.25879 0.94698,0.6623 1.17937,1.21053 l -1.25014,0.45949 c -0.13732,-0.31689 -0.37763,-0.55139 -0.7204,-0.70456 -0.3433,-0.15316 -0.69928,-0.22922 -1.06845,-0.22922 -0.4014,0 -0.76529,0.0898 -1.09222,0.2683 -0.32693,0.17957 -0.49065,0.43837 -0.49065,0.77639 0,0.33802 0.13996,0.58308 0.41935,0.73519 0.27939,0.15316 0.62533,0.27253 1.03677,0.35703 l 1.02884,0.20492 c 0.42199,0.0845 0.82339,0.20598 1.20313,0.36443 0.37974,0.15845 0.69082,0.39295 0.93378,0.70456 0.24242,0.31161 0.3639,0.74681 0.3639,1.3056 0,0.49646 -0.15264,0.91793 -0.45897,1.26651 -0.3058,0.34858 -0.70192,0.61477 -1.18676,0.79962 -0.4859,0.1838 -1.00296,0.27675 -1.55119,0.27675 z"
         id="path45" />
      <path
         class="cls-2"
         d="m 521.8352,435.54308 c -0.45421,0 -0.89997,-0.0718 -1.33781,-0.21337 -0.43784,-0.1426 -0.82814,-0.35914 -1.17092,-0.64963 -0.3433,-0.28943 -0.60421,-0.65702 -0.78378,-1.09962 l 1.28236,-0.47534 c 0.11567,0.46478 0.37182,0.79962 0.76741,1.0056 0.39559,0.20598 0.80966,0.30844 1.24275,0.30844 0.31636,0 0.61424,-0.0475 0.89416,-0.1426 0.27939,-0.0951 0.50914,-0.23239 0.68871,-0.41196 0.17904,-0.17852 0.26883,-0.3845 0.26883,-0.61688 0,-0.43203 -0.17165,-0.73836 -0.51442,-0.91793 -0.34277,-0.17957 -0.75209,-0.31689 -1.2269,-0.41196 l -1.09169,-0.22077 c -0.38027,-0.0845 -0.73361,-0.20387 -1.06053,-0.35703 -0.32746,-0.15211 -0.59153,-0.37182 -0.7917,-0.65597 -0.2007,-0.2852 -0.30052,-0.66547 -0.30052,-1.13976 0,-0.47534 0.14735,-0.87357 0.44312,-1.19574 0.29524,-0.32112 0.67287,-0.56724 1.13183,-0.73519 0.45897,-0.16901 0.9417,-0.25351 1.4482,-0.25351 0.62216,0 1.21053,0.12887 1.76456,0.38766 0.55403,0.25879 0.94698,0.6623 1.17937,1.21053 l -1.25014,0.45949 c -0.13732,-0.31689 -0.37763,-0.55139 -0.7204,-0.70456 -0.3433,-0.15316 -0.69928,-0.22922 -1.06845,-0.22922 -0.4014,0 -0.76529,0.0898 -1.09222,0.2683 -0.32693,0.17957 -0.49065,0.43837 -0.49065,0.77639 0,0.33802 0.13996,0.58308 0.41935,0.73519 0.27939,0.15316 0.62533,0.27253 1.03677,0.35703 l 1.02884,0.20492 c 0.42199,0.0845 0.82339,0.20598 1.20313,0.36443 0.37974,0.15845 0.69082,0.39295 0.93378,0.70456 0.24242,0.31161 0.3639,0.74681 0.3639,1.3056 0,0.49646 -0.15264,0.91793 -0.45897,1.26651 -0.3058,0.34858 -0.70192,0.61477 -1.18676,0.79962 -0.4859,0.1838 -1.00296,0.27675 -1.55119,0.27675 z"
         id="path46" />
    </g>
  </g>
</svg>
